<?xml version="1.0" standalone="no"?>
<!DOCTYPE svg PUBLIC "-//W3C//DTD SVG 20010904//EN"
 "http://www.w3.org/TR/2001/REC-SVG-20010904/DTD/svg10.dtd">
<svg version="1.0" xmlns="http://www.w3.org/2000/svg"
 width="512.000000pt" height="512.000000pt" viewBox="0 0 512.000000 512.000000"
 preserveAspectRatio="xMidYMid meet">

<g transform="translate(0.000000,512.000000) scale(0.100000,-0.100000)"
fill="#000000" stroke="none">
<path d="M960 5106 c-147 -41 -267 -162 -306 -310 -11 -41 -14 -213 -14 -904
l0 -853 25 -24 c30 -31 83 -33 116 -6 l24 19 5 869 c5 866 5 868 27 908 25 47
74 95 123 121 34 18 100 19 1795 22 1950 3 1810 7 1892 -63 22 -19 51 -56 64
-82 l24 -48 3 -1692 2 -1693 -292 0 c-161 0 -324 -5 -363 -10 -183 -27 -326
-159 -364 -338 -7 -33 -11 -173 -11 -367 l0 -315 -185 0 c-184 0 -186 0 -210
-25 -31 -30 -33 -83 -6 -116 19 -24 21 -24 252 -27 128 -2 245 0 259 3 28 7
1052 1022 1076 1067 12 23 14 273 14 1740 0 1139 -4 1735 -11 1777 -27 170
-148 302 -314 346 -52 13 -268 15 -1820 14 -1377 -1 -1770 -4 -1805 -13z
m3295 -4276 c-198 -198 -364 -360 -368 -360 -5 0 -7 120 -5 268 3 238 5 271
22 302 35 66 65 98 118 124 l52 26 270 0 271 0 -360 -360z"/>
<path d="M1200 4597 c-53 -27 -62 -96 -18 -137 19 -18 35 -20 140 -20 113 0
120 1 143 25 42 41 31 105 -22 133 -30 16 -211 15 -243 -1z"/>
<path d="M1712 4600 c-27 -11 -55 -71 -45 -97 3 -10 15 -28 26 -40 l20 -23
1312 0 1312 0 27 21 c26 21 35 65 20 104 -18 46 21 45 -1356 44 -763 0 -1302
-4 -1316 -9z"/>
<path d="M1202 4086 c-55 -25 -66 -92 -22 -136 18 -18 34 -20 143 -20 116 0
125 1 145 23 31 33 29 87 -4 118 -23 22 -35 24 -127 27 -73 1 -111 -2 -135
-12z"/>
<path d="M1714 4086 c-20 -9 -35 -25 -42 -45 -13 -36 -8 -56 21 -88 l20 -23
1014 0 c630 0 1021 4 1032 10 31 16 46 65 30 101 -25 61 17 59 -1061 59 -805
-1 -989 -3 -1014 -14z"/>
<path d="M1180 3560 c-43 -43 -33 -107 21 -135 25 -13 54 -16 134 -13 93 3
106 5 129 27 32 30 34 78 5 115 -20 26 -22 26 -145 26 -110 0 -126 -2 -144
-20z"/>
<path d="M1693 3558 c-11 -13 -23 -31 -26 -41 -11 -29 17 -82 49 -95 22 -9
205 -12 732 -10 l704 3 24 28 c31 37 31 81 -1 112 l-24 25 -719 0 -719 0 -20
-22z"/>
<path d="M4419 3384 l-24 -26 0 -630 0 -630 28 -24 c16 -13 41 -24 57 -24 16
0 41 11 57 24 l28 24 0 630 0 630 -24 26 c-18 19 -35 26 -61 26 -26 0 -43 -7
-61 -26z"/>
<path d="M443 2711 c-192 -71 -281 -281 -196 -462 28 -61 61 -95 451 -470 231
-222 422 -407 424 -410 2 -4 -182 -185 -409 -403 -226 -217 -423 -411 -437
-429 -64 -84 -79 -229 -34 -328 85 -187 288 -260 466 -167 51 27 143 109 485
438 231 223 424 405 428 405 4 0 197 -182 429 -405 493 -474 494 -475 644
-475 85 0 95 2 154 34 177 96 235 325 125 488 -15 23 -214 220 -441 438 -227
218 -412 400 -410 404 2 4 185 181 408 395 223 214 422 413 442 442 62 91 74
218 28 320 -27 62 -103 139 -169 171 -48 24 -68 28 -142 28 -79 0 -91 -3 -152
-35 -66 -35 -118 -82 -819 -758 l-97 -94 -430 414 c-484 464 -490 469 -621
475 -56 3 -88 -1 -127 -16z m185 -170 c20 -11 243 -218 496 -460 552 -531 482
-495 650 -333 532 515 813 780 844 794 68 32 133 20 190 -35 59 -57 66 -157
15 -218 -14 -17 -197 -195 -407 -396 -530 -508 -506 -483 -506 -528 0 -45 -30
-14 500 -520 235 -225 414 -405 428 -428 27 -48 28 -89 3 -142 -22 -48 -44
-69 -96 -90 -45 -19 -106 -14 -146 13 -22 14 -394 368 -830 789 -161 156 -104
183 -586 -279 -219 -210 -430 -412 -468 -449 -77 -73 -127 -95 -190 -83 -110
20 -173 144 -122 240 9 18 221 228 471 468 271 261 456 446 460 460 3 14 2 35
-3 48 -5 13 -212 219 -461 458 -248 239 -457 445 -464 459 -46 92 -13 191 78
232 53 24 98 24 144 0z"/>
<path d="M4438 1865 c-38 -21 -51 -71 -46 -181 3 -81 7 -97 28 -119 17 -18 34
-25 60 -25 26 0 43 7 60 25 21 22 25 38 28 119 5 113 -8 160 -48 181 -35 18
-48 18 -82 0z"/>
</g>
</svg>
