<?xml version="1.0" standalone="no"?>
<!DOCTYPE svg PUBLIC "-//W3C//DTD SVG 20010904//EN"
 "http://www.w3.org/TR/2001/REC-SVG-20010904/DTD/svg10.dtd">
<svg version="1.0" xmlns="http://www.w3.org/2000/svg"
 width="512.000000pt" height="512.000000pt" viewBox="0 0 512.000000 512.000000"
 preserveAspectRatio="xMidYMid meet">

<g transform="translate(0.000000,512.000000) scale(0.100000,-0.100000)"
fill="#000000" stroke="none">
<path d="M1378 4420 c-63 -11 -143 -56 -177 -99 -60 -76 -65 -96 -69 -248 l-4
-142 -56 -16 c-125 -37 -181 -79 -330 -253 -63 -74 -89 -88 -169 -97 l-61 -7
-48 50 c-32 33 -63 54 -89 61 -54 15 -178 14 -229 -1 -53 -16 -121 -84 -135
-134 -7 -25 -11 -213 -11 -532 0 -537 0 -534 58 -595 51 -54 91 -67 203 -67
119 0 172 19 215 76 l26 34 115 0 114 0 154 -60 c85 -33 157 -60 162 -60 4 0
25 -5 45 -10 l37 -11 3 -702 3 -702 23 -42 c32 -60 86 -111 151 -142 l56 -26
1190 0 c1376 0 1255 -9 1360 100 51 53 68 64 115 75 30 7 122 39 204 71 l149
59 117 0 118 0 26 -34 c43 -57 96 -76 212 -76 74 0 109 5 139 19 50 22 101 79
115 128 8 26 10 196 8 544 l-3 505 -28 42 c-15 23 -46 54 -68 69 -36 23 -54
28 -133 31 -121 5 -169 -8 -225 -64 -42 -42 -46 -44 -103 -44 -80 0 -119 20
-181 94 -139 164 -215 222 -325 250 l-47 12 -5 271 c-5 248 -7 273 -24 292
-26 29 -76 28 -104 -2 -22 -23 -22 -28 -22 -383 0 -402 -3 -416 -71 -465 -32
-23 -45 -24 -219 -30 -110 -3 -197 -11 -215 -18 -83 -34 -143 -114 -152 -203
-11 -105 35 -192 128 -243 l54 -30 235 -5 235 -5 0 -355 0 -355 -23 -33 c-52
-72 47 -67 -1264 -67 l-1177 0 -28 21 c-15 11 -38 36 -50 54 l-23 33 0 666 0
666 293 0 294 0 49 30 c93 58 136 173 100 274 -15 44 -15 45 14 78 64 72 80
142 55 228 l-16 56 25 20 c13 10 36 42 50 71 34 68 34 135 2 204 l-24 52 29
57 c46 91 36 180 -29 255 -64 76 -55 74 -448 80 -328 5 -353 6 -373 24 -20 18
-21 28 -21 236 0 209 1 218 23 250 12 18 35 43 50 54 28 21 33 21 902 24 l873
3 4 -243 c3 -238 4 -244 29 -298 31 -66 85 -121 148 -152 43 -22 60 -23 294
-26 l247 -3 0 -120 c0 -66 5 -129 11 -140 15 -29 57 -42 90 -29 44 19 51 52
47 217 -3 128 -6 153 -25 188 -26 49 -684 706 -733 731 -33 18 -78 19 -925 20
-490 1 -911 -2 -937 -6z m2142 -485 l225 -226 -182 3 c-165 3 -184 5 -209 24
-66 48 -69 59 -72 250 -2 96 0 174 5 174 4 0 109 -101 233 -225z m-2390 -196
c0 -44 46 -124 89 -153 59 -40 107 -45 444 -46 l318 0 24 -25 c16 -15 25 -36
25 -55 0 -19 -9 -40 -25 -55 l-24 -25 -326 0 -326 0 -24 -25 c-30 -30 -32 -64
-4 -99 l20 -26 315 0 c330 0 362 -4 378 -45 10 -26 6 -69 -7 -86 -28 -37 -50
-39 -371 -39 l-315 0 -20 -26 c-26 -33 -27 -65 -2 -95 l19 -24 299 -6 c164 -3
299 -6 300 -7 1 -1 10 -16 19 -33 18 -36 13 -70 -16 -99 -19 -19 -35 -20 -295
-20 -223 0 -281 -3 -304 -15 -46 -23 -54 -66 -21 -108 l21 -26 255 -3 256 -3
24 -28 c42 -49 21 -117 -42 -133 -13 -3 -147 -4 -297 -1 -337 7 -393 17 -642
123 -85 36 -98 38 -220 43 l-130 6 -3 187 -2 187 -27 20 c-42 34 -85 26 -108
-20 -12 -22 -15 -74 -15 -243 0 -256 4 -246 -107 -246 -123 0 -113 -48 -113
517 0 565 -9 523 108 523 105 0 112 -8 112 -136 0 -73 5 -114 15 -133 23 -46
66 -54 109 -20 24 19 26 27 26 93 l0 73 86 11 c117 16 171 46 248 142 96 117
127 148 186 180 72 39 90 39 90 -1z m2980 -1467 c30 -21 88 -78 130 -129 112
-138 153 -163 275 -172 l80 -6 0 -405 0 -405 -130 -6 c-129 -5 -131 -5 -270
-61 -77 -31 -152 -60 -167 -63 l-28 -7 0 232 0 231 30 -21 c84 -60 208 -83
249 -46 27 24 28 79 3 104 -10 10 -47 24 -81 31 -69 14 -114 50 -163 133 -30
49 -85 92 -145 114 -27 9 -98 13 -251 14 -172 0 -220 3 -247 15 -49 24 -67 77
-44 128 21 46 42 52 239 57 164 5 190 8 226 27 96 51 156 128 175 225 11 57
13 59 38 53 14 -3 51 -23 81 -43z m840 -212 c19 -19 20 -33 20 -498 0 -416 -2
-480 -16 -500 -13 -19 -24 -22 -91 -22 -123 0 -113 -48 -113 518 0 438 2 487
17 504 25 27 155 26 183 -2z"/>
<path d="M1583 1714 c-20 -20 -24 -31 -19 -57 13 -64 0 -62 406 -62 406 0 393
-2 406 62 5 26 1 37 -19 57 l-26 26 -361 0 -361 0 -26 -26z"/>
<path d="M1591 1413 c-11 -10 -24 -32 -27 -50 -5 -26 -1 -37 19 -57 l26 -26
361 0 361 0 26 26 c20 20 24 31 19 57 -13 68 -9 67 -406 67 -326 0 -360 -2
-379 -17z"/>
</g>
</svg>
