<?xml version="1.0" encoding="UTF-8"?>
<!DOCTYPE svg PUBLIC "-//W3C//DTD SVG 1.1//EN" "http://www.w3.org/Graphics/SVG/1.1/DTD/svg11.dtd">
<svg xmlns="http://www.w3.org/2000/svg" version="1.1" width="512px" height="512px" style="shape-rendering:geometricPrecision; text-rendering:geometricPrecision; image-rendering:optimizeQuality; fill-rule:evenodd; clip-rule:evenodd" xmlns:xlink="http://www.w3.org/1999/xlink">
<g><path style="opacity:0.985" fill="#000000" d="M 304.5,25.5 C 329.312,24.1445 340.812,35.8111 339,60.5C 337.708,65.1244 335.541,69.2911 332.5,73C 405.482,86.98 452.982,129.48 475,200.5C 480.066,220.902 481.9,241.569 480.5,262.5C 386.167,262.5 291.833,262.5 197.5,262.5C 199.222,223.607 209.056,186.941 227,152.5C 243.413,127.419 263.913,106.253 288.5,89C 253.136,99.855 224.969,121.688 204,154.5C 185.226,187.999 175.059,223.999 173.5,262.5C 163.167,262.5 152.833,262.5 142.5,262.5C 138.773,194.132 164.439,139.965 219.5,100C 241.343,86.2469 265.009,77.2469 290.5,73C 283.469,63.8702 281.636,53.7035 285,42.5C 288.936,33.7207 295.436,28.054 304.5,25.5 Z"/></g>
<g><path style="opacity:0.98" fill="#000000" d="M 511.5,272.5 C 511.5,284.5 511.5,296.5 511.5,308.5C 378.167,308.5 244.833,308.5 111.5,308.5C 111.5,296.5 111.5,284.5 111.5,272.5C 244.833,272.5 378.167,272.5 511.5,272.5 Z"/></g>
<g><path style="opacity:0.977" fill="#000000" d="M 235.5,319.5 C 244.648,319.646 249.648,324.312 250.5,333.5C 250.209,340.625 246.542,344.792 239.5,346C 219.037,350.866 198.704,356.199 178.5,362C 179.167,362.333 179.833,362.667 180.5,363C 206.157,364.875 231.824,366.208 257.5,367C 287.894,356.314 317.894,344.647 347.5,332C 353.675,329.744 359.675,330.077 365.5,333C 371.231,339.349 371.898,346.183 367.5,353.5C 331.651,379.263 294.318,402.763 255.5,424C 234.707,425.138 213.874,425.638 193,425.5C 168.157,425.235 143.324,425.068 118.5,425C 114.929,426.119 111.596,427.785 108.5,430C 103.979,435.02 99.6452,440.187 95.5,445.5C 89.5753,413.118 84.242,380.618 79.5,348C 79.8333,346.833 80.1667,345.667 80.5,344.5C 99.4619,337.568 118.462,330.735 137.5,324C 170.323,322.448 202.99,320.948 235.5,319.5 Z"/></g>
<g><path style="opacity:0.985" fill="#000000" d="M -0.5,485.5 C -0.5,442.167 -0.5,398.833 -0.5,355.5C 22.5204,351.608 45.5204,347.608 68.5,343.5C 75.7359,384.915 83.4025,426.249 91.5,467.5C 89.9412,469.131 87.9412,469.964 85.5,470C 56.8759,475.492 28.2092,480.658 -0.5,485.5 Z"/></g>
</svg>
