<?xml version="1.0" standalone="no"?>
<!DOCTYPE svg PUBLIC "-//W3C//DTD SVG 20010904//EN"
 "http://www.w3.org/TR/2001/REC-SVG-20010904/DTD/svg10.dtd">
<svg version="1.0" xmlns="http://www.w3.org/2000/svg"
 width="512.000000pt" height="512.000000pt" viewBox="0 0 512.000000 512.000000"
 preserveAspectRatio="xMidYMid meet">

<g transform="translate(0.000000,512.000000) scale(0.100000,-0.100000)"
fill="#000000" stroke="none">
<path d="M845 5113 c-132 -28 -247 -120 -310 -248 -69 -138 -66 -32 -63 -1918
l3 -1702 22 -66 c61 -179 200 -305 365 -330 38 -6 545 -8 1296 -7 l1233 3 -82
120 c-44 66 -83 125 -86 132 -4 9 24 13 105 15 l110 3 -358 525 c-198 289
-359 530 -359 535 -1 6 15 21 35 33 30 20 39 22 49 10 8 -7 181 -258 385 -558
l371 -545 -55 -3 c-31 -2 -56 -5 -56 -8 0 -3 38 -62 85 -130 47 -69 85 -127
85 -129 0 -2 -50 -6 -111 -7 l-110 -3 232 -340 c128 -187 246 -360 262 -383
37 -55 72 -76 159 -98 83 -20 159 -14 221 17 77 39 255 168 296 215 63 72 96
211 68 291 -8 22 -137 222 -288 443 l-274 402 -7 -79 c-8 -91 -36 -177 -78
-244 -44 -67 -131 -146 -195 -175 -49 -23 -54 -28 -44 -45 12 -24 4 -36 -40
-62 l-30 -18 -25 38 c-24 34 -25 38 -9 45 10 3 30 7 45 7 15 1 29 5 32 10 3 5
-30 62 -75 127 l-80 119 53 5 c60 6 82 16 120 57 57 59 62 87 68 352 l5 244
125 -184 125 -183 3 1643 c2 1813 6 1709 -61 1835 -45 86 -131 169 -214 209
l-68 32 -1430 1 c-786 1 -1439 0 -1450 -3z m2862 -285 c28 -19 50 -45 70 -85
l28 -58 3 -1455 c1 -876 -1 -1450 -7 -1445 -5 6 -156 226 -335 490 -180 264
-341 492 -359 506 -63 52 -745 519 -771 529 -44 16 -94 12 -116 -10 -15 -15
-20 -33 -20 -72 0 -53 190 -882 216 -943 7 -16 188 -286 402 -600 l390 -570
-1165 -3 c-1297 -2 -1197 -8 -1252 68 -15 21 -33 58 -40 82 -9 32 -11 462 -9
1743 l3 1700 22 40 c27 51 72 93 109 105 16 5 645 8 1410 7 l1380 -2 41 -27z
m-1017 -1949 c159 -110 292 -204 294 -208 5 -7 -424 -305 -429 -299 -3 4 -165
693 -165 701 0 4 2 7 5 7 2 0 135 -90 295 -201z m1597 -2091 l83 -122 -58 -21
c-73 -26 -293 -177 -351 -240 -23 -25 -44 -45 -45 -43 -42 50 -164 244 -158
250 18 18 428 297 437 297 6 0 47 -54 92 -121z"/>
<path d="M1130 4305 l0 -135 820 0 820 0 0 135 0 135 -820 0 -820 0 0 -135z"/>
<path d="M3000 4305 l0 -135 205 0 205 0 0 135 0 135 -205 0 -205 0 0 -135z"/>
<path d="M1130 3775 l0 -135 1140 0 1140 0 0 135 0 135 -1140 0 -1140 0 0
-135z"/>
<path d="M1130 3250 l0 -140 430 0 431 0 -3 138 -3 137 -427 3 -428 2 0 -140z"/>
<path d="M3007 3383 c-4 -3 -7 -66 -7 -140 l0 -133 205 0 205 0 0 140 0 140
-198 0 c-109 0 -202 -3 -205 -7z"/>
<path d="M1130 2720 l0 -140 428 2 427 3 0 135 0 135 -427 3 -428 2 0 -140z"/>
<path d="M1130 2190 l0 -140 500 0 500 0 0 140 0 140 -500 0 -500 0 0 -140z"/>
<path d="M1130 1665 l0 -135 645 0 645 0 0 135 0 135 -645 0 -645 0 0 -135z"/>
</g>
</svg>
