<?xml version="1.0" standalone="no"?>
<!DOCTYPE svg PUBLIC "-//W3C//DTD SVG 20010904//EN"
 "http://www.w3.org/TR/2001/REC-SVG-20010904/DTD/svg10.dtd">
<svg version="1.0" xmlns="http://www.w3.org/2000/svg"
 width="100.000000pt" height="100.000000pt" viewBox="0 0 100.000000 100.000000"
 preserveAspectRatio="xMidYMid meet">

<g transform="translate(0.000000,100.000000) scale(0.100000,-0.100000)"
fill="#000000" stroke="none">
<path d="M165 928 c-3 -7 -4 -195 -3 -418 l3 -405 157 -3 157 -3 3 -46 c2 -26
8 -48 14 -50 5 -2 31 13 57 33 l47 37 47 -37 c26 -20 52 -35 57 -33 6 2 12 24
14 50 l3 46 57 3 57 3 0 415 0 415 -333 3 c-261 2 -334 0 -337 -10z m635 -408
l0 -380 -41 0 -41 0 5 68 c3 37 8 75 12 85 5 12 0 34 -14 62 -25 49 -32 56
-84 74 -30 10 -44 10 -75 0 -51 -18 -58 -25 -83 -74 -14 -28 -19 -50 -14 -62
4 -10 9 -48 12 -85 l5 -68 -141 0 -141 0 0 380 0 380 300 0 300 0 0 -380z
m-185 -130 c3 -5 17 -10 31 -10 16 0 24 -6 24 -17 0 -9 7 -25 16 -35 13 -14
14 -21 5 -32 -7 -8 -10 -24 -6 -36 4 -14 2 -20 -9 -20 -8 0 -21 -8 -28 -18 -8
-11 -26 -17 -48 -17 -22 0 -40 6 -48 17 -7 10 -20 18 -28 18 -11 0 -13 6 -9
20 4 12 1 28 -6 36 -9 11 -8 18 5 32 9 10 16 26 16 35 0 11 8 17 24 17 14 0
28 5 31 10 3 6 10 10 15 10 5 0 12 -4 15 -10z m-15 -228 c31 0 57 6 65 15 13
13 15 7 15 -46 0 -34 -3 -61 -6 -61 -3 0 -19 11 -36 25 -37 31 -39 31 -76 0
-17 -14 -33 -25 -36 -25 -3 0 -6 27 -6 61 0 53 2 59 15 46 8 -9 34 -15 65 -15z"/>
<path d="M300 780 c0 -19 7 -20 180 -20 173 0 180 1 180 20 0 19 -7 20 -180
20 -173 0 -180 -1 -180 -20z"/>
<path d="M300 660 c0 -19 7 -20 200 -20 193 0 200 1 200 20 0 19 -7 20 -200
20 -193 0 -200 -1 -200 -20z"/>
<path d="M300 540 c0 -19 7 -20 150 -20 143 0 150 1 150 20 0 19 -7 20 -150
20 -143 0 -150 -1 -150 -20z"/>
<path d="M300 420 c0 -18 7 -20 60 -20 53 0 60 2 60 20 0 18 -7 20 -60 20 -53
0 -60 -2 -60 -20z"/>
</g>
</svg>
